<svg xmlns="http://www.w3.org/2000/svg" version="1.1" xmlns:xlink="http://www.w3.org/1999/xlink" xmlns:svgjs="http://svgjs.dev/svgjs" width="1500" height="1500" viewBox="0 0 1500 1500"><rect width="1500" height="1500" fill="#ffffff"></rect><g transform="matrix(0.6666666666666666,0,0,0.6666666666666666,249.39393939393938,593.0672313106992)"><svg viewBox="0 0 396 124" data-background-color="#ffffff" preserveAspectRatio="xMidYMid meet" height="469" width="1500" xmlns="http://www.w3.org/2000/svg" xmlns:xlink="http://www.w3.org/1999/xlink"><g id="tight-bounds" transform="matrix(1,0,0,1,0.2400000000000091,0.23772916036236325)"><svg viewBox="0 0 395.52 123.52454167927527" height="123.52454167927527" width="395.52"><g><svg viewBox="0 0 603.2973822884446 188.4153333421487" height="123.52454167927527" width="395.52"><g transform="matrix(1,0,0,1,207.7773822884447,53.19958252381666)"><svg viewBox="0 0 395.52 82.01616829451538" height="82.01616829451538" width="395.52"><g id="textblocktransform"><svg viewBox="0 0 395.52 82.01616829451538" height="82.01616829451538" width="395.52" id="textblock"><g><svg viewBox="0 0 395.52 82.01616829451538" height="82.01616829451538" width="395.52"><g transform="matrix(1,0,0,1,0,0)"><svg width="395.52" viewBox="2.75 -36.25 199.63 41.4" height="82.01616829451538" data-palette-color="#ff5858"><path d="M2.75-29.25L2.75-33.45 26.2-33.45 25.3-29.25 16.85-29.25 11.2 0 5.4 0 11.1-29.25 2.75-29.25ZM28.75-3.7Q30-3.7 31.25-5.1 32.5-6.5 33.55-8.53 34.6-10.55 35.37-12.88 36.15-15.2 36.55-17.1L36.55-17.1 37.25-20.55Q36.65-20.85 35.87-20.95 35.1-21.05 34.4-21.05L34.4-21.05Q32.15-21.05 30.57-19.78 29-18.5 28.02-16.53 27.05-14.55 26.62-12.18 26.2-9.8 26.2-7.65L26.2-7.65Q26.2-5.45 26.82-4.58 27.45-3.7 28.75-3.7L28.75-3.7ZM26.9 0.4Q25.1 0.4 23.85-0.3 22.6-1 21.8-2.18 21-3.35 20.62-4.83 20.25-6.3 20.25-7.85L20.25-7.85Q20.25-11.4 21.17-14.5 22.1-17.6 23.9-19.93 25.7-22.25 28.3-23.58 30.9-24.9 34.3-24.9L34.3-24.9Q35.15-24.9 36.7-24.73 38.25-24.55 40.25-23.7L40.25-23.7 43.4-23.5 41.15-11.85Q40.65-9.2 40.65-7.2L40.65-7.2Q40.65-4.75 41.27-3.43 41.9-2.1 42.45-1.3L42.45-1.3 37.95 0.5Q37.2-0.35 36.72-1.6 36.25-2.85 36.25-4.45L36.25-4.45Q36.25-5.1 36.35-6.13 36.45-7.15 36.6-8.45L36.6-8.45 35.75-6.45Q34.9-4.5 33.9-3.18 32.9-1.85 31.77-1.05 30.65-0.25 29.42 0.08 28.2 0.4 26.9 0.4L26.9 0.4ZM55.2-36.05Q56.8-36.05 57.55-35.18 58.3-34.3 58.3-32.8L58.3-32.8Q58.3-31.35 57.3-30.23 56.3-29.1 54.6-29.1L54.6-29.1Q53-29.1 52.25-30 51.5-30.9 51.5-32.25L51.5-32.25Q51.5-33.8 52.47-34.93 53.45-36.05 55.2-36.05L55.2-36.05ZM51.55 0.25Q49.3 0.25 48.1-0.9 46.9-2.05 46.9-3.95L46.9-3.95Q46.9-4.65 47.05-5.4L47.05-5.4 50.85-24.5 56.35-24.5 52.75-5.9Q52.7-5.65 52.67-5.48 52.65-5.3 52.65-5.1L52.65-5.1Q52.65-3.85 53.5-3.85L53.5-3.85Q54.35-3.85 55.15-4.03 55.95-4.2 56.05-4.25L56.05-4.25 56.05-0.65Q55.5-0.4 54.8-0.2L54.8-0.2Q54.2 0 53.37 0.13 52.55 0.25 51.55 0.25L51.55 0.25ZM70.19-4.25L70.19-0.65Q69.54-0.4 68.74-0.2L68.74-0.2Q68.04 0 67.07 0.13 66.09 0.25 64.94 0.25L64.94 0.25Q62.59 0.25 61.44-0.9 60.29-2.05 60.29-3.95L60.29-3.95Q60.29-4.65 60.44-5.35L60.44-5.35 66.29-35.25 71.94-36.25 66.14-5.9Q66.09-5.65 66.07-5.48 66.04-5.3 66.04-5.1L66.04-5.1Q66.04-3.85 67.39-3.85L67.39-3.85Q68.44-3.85 69.27-4.03 70.09-4.2 70.19-4.25L70.19-4.25ZM96.89-16.65Q96.89-13.1 95.97-10 95.04-6.9 93.24-4.58 91.44-2.25 88.82-0.93 86.19 0.4 82.84 0.4L82.84 0.4Q81.04 0.4 79.39 0 77.74-0.4 76.52-0.85 75.29-1.3 74.59-1.68 73.89-2.05 73.94-2.05L73.94-2.05 80.44-35.25 86.09-36.25 84.54-27.9Q84.24-26.3 83.59-24.05 82.94-21.8 82.29-19.8L82.29-19.8Q83.89-22.7 85.92-23.8 87.94-24.9 90.24-24.9L90.24-24.9Q92.04-24.9 93.29-24.2 94.54-23.5 95.34-22.33 96.14-21.15 96.52-19.68 96.89-18.2 96.89-16.65L96.89-16.65ZM88.39-20.8Q87.19-20.8 86.02-19.6 84.84-18.4 83.77-16.43 82.69-14.45 81.82-11.93 80.94-9.4 80.44-6.7L80.44-6.7 79.89-3.9Q80.64-3.65 81.42-3.55 82.19-3.45 82.74-3.45L82.74-3.45Q84.99-3.45 86.54-4.73 88.09-6 89.07-7.98 90.04-9.95 90.49-12.33 90.94-14.7 90.94-16.85L90.94-16.85Q90.94-19.05 90.32-19.93 89.69-20.8 88.39-20.8L88.39-20.8ZM109.79-4.25L109.79-0.65Q109.14-0.4 108.34-0.2L108.34-0.2Q107.64 0 106.66 0.13 105.69 0.25 104.54 0.25L104.54 0.25Q102.19 0.25 101.04-0.9 99.89-2.05 99.89-3.95L99.89-3.95Q99.89-4.65 100.04-5.35L100.04-5.35 105.89-35.25 111.54-36.25 105.74-5.9Q105.69-5.65 105.66-5.48 105.64-5.3 105.64-5.1L105.64-5.1Q105.64-3.85 106.99-3.85L106.99-3.85Q108.04-3.85 108.86-4.03 109.69-4.2 109.79-4.25L109.79-4.25ZM126.99-25.1Q129.39-25.1 130.99-24.4 132.59-23.7 133.56-22.53 134.54-21.35 134.94-19.85 135.34-18.35 135.34-16.75L135.34-16.75Q135.34-13.15 134.41-10 133.49-6.85 131.74-4.5 129.99-2.15 127.36-0.8 124.74 0.55 121.39 0.55L121.39 0.55Q119.04 0.55 117.44-0.15 115.84-0.85 114.86-2.02 113.89-3.2 113.46-4.7 113.04-6.2 113.04-7.8L113.04-7.8Q113.04-11.35 113.96-14.5 114.89-17.65 116.66-20 118.44-22.35 121.04-23.73 123.64-25.1 126.99-25.1L126.99-25.1ZM125.84-21.25Q124.19-21.25 122.91-19.88 121.64-18.5 120.76-16.43 119.89-14.35 119.44-11.95 118.99-9.55 118.99-7.45L118.99-7.45Q118.99-5.1 119.94-4.2 120.89-3.3 122.54-3.3L122.54-3.3Q124.19-3.3 125.46-4.67 126.74-6.05 127.61-8.13 128.49-10.2 128.94-12.63 129.39-15.05 129.39-17.1L129.39-17.1Q129.39-19.45 128.44-20.35 127.49-21.25 125.84-21.25L125.84-21.25ZM153.53-4.85L154.73-1.25Q153.53-0.75 152.23-0.35L152.23-0.35Q151.08 0 149.66 0.28 148.23 0.55 146.68 0.55L146.68 0.55Q144.33 0.55 142.73-0.15 141.13-0.85 140.16-2.02 139.18-3.2 138.76-4.7 138.33-6.2 138.33-7.8L138.33-7.8Q138.33-11.3 139.26-14.45 140.18-17.6 141.96-19.98 143.73-22.35 146.33-23.73 148.93-25.1 152.28-25.1L152.28-25.1Q153.68-25.1 154.71-24.68 155.73-24.25 156.41-23.58 157.08-22.9 157.48-22.05 157.88-21.2 158.13-20.3L158.13-20.3 153.98-18.5Q153.78-18.95 153.58-19.43 153.38-19.9 153.08-20.25 152.78-20.6 152.33-20.83 151.88-21.05 151.13-21.05L151.13-21.05Q149.48-21.05 148.21-19.73 146.93-18.4 146.06-16.43 145.18-14.45 144.73-12.1 144.28-9.75 144.28-7.65L144.28-7.65Q144.28-5.3 145.23-4.4 146.18-3.5 147.83-3.5L147.83-3.5Q148.48-3.5 149.46-3.7 150.43-3.9 151.36-4.17 152.28-4.45 152.93-4.65L152.93-4.65 153.53-4.85ZM165.53-7.8L164.03 0 158.43 0 165.33-35.25 170.98-36.25 169.43-27.85Q169.13-26.25 168.41-23.95 167.68-21.65 167.13-19.6L167.13-19.6Q169.08-22.75 171.23-23.83 173.38-24.9 175.48-24.9L175.48-24.9Q178.38-24.9 180.28-23.5 182.18-22.1 182.18-19.15L182.18-19.15Q182.18-16.9 181.06-15.28 179.93-13.65 178.58-12.65L178.58-12.65Q176.98-11.45 175.03-10.7L175.03-10.7Q175.68-8.65 176.46-6.93 177.23-5.2 178.21-3.6 179.18-2 180.33-0.48 181.48 1.05 182.88 2.65L182.88 2.65 178.43 5.15Q174.53 1.55 172.26-2.88 169.98-7.3 168.78-12L168.78-12 168.83-12.5Q169.23-12.6 170.46-13 171.68-13.4 172.98-14.1 174.28-14.8 175.31-15.83 176.33-16.85 176.33-18.2L176.33-18.2Q176.33-19.5 175.78-20.18 175.23-20.85 173.83-20.85L173.83-20.85Q172.08-20.85 170.71-19.48 169.33-18.1 168.28-16.07 167.23-14.05 166.56-11.8 165.88-9.55 165.53-7.8L165.53-7.8ZM195.78-25.1L195.78-25.1Q197.33-25.1 198.48-24.73 199.63-24.35 200.43-23.7 201.23-23.05 201.7-22.18 202.18-21.3 202.38-20.35L202.38-20.35 198.23-18.7Q198.03-19.15 197.88-19.63 197.73-20.1 197.43-20.48 197.13-20.85 196.65-21.08 196.18-21.3 195.38-21.3L195.38-21.3Q193.68-21.3 192.95-20.35 192.23-19.4 192.23-18.4L192.23-18.4Q192.23-17.7 192.5-17.15 192.78-16.6 193.18-16.15 193.58-15.7 194.05-15.35 194.53-15 194.93-14.8L194.93-14.8 196.38-14Q197.18-13.55 197.95-13.03 198.73-12.5 199.28-11.75 199.83-11 200.18-9.93 200.53-8.85 200.53-7.3L200.53-7.3Q200.53-5.7 199.9-4.28 199.28-2.85 198.08-1.78 196.88-0.7 195.08-0.08 193.28 0.55 190.88 0.55L190.88 0.55Q189.28 0.55 187.8 0.18 186.33-0.2 185.18-0.65L185.18-0.65Q183.88-1.2 182.68-1.85L182.68-1.85 184.88-5.8Q185.93-5.15 187.03-4.65L187.03-4.65Q187.93-4.2 189-3.85 190.08-3.5 191.03-3.5L191.03-3.5Q192.93-3.5 193.85-4.35 194.78-5.2 194.78-6.35L194.78-6.35Q194.78-8.05 193.85-8.93 192.93-9.8 191.73-10.45L191.73-10.45 190.48-11.1Q189.88-11.4 189.18-11.85 188.48-12.3 187.85-13.03 187.23-13.75 186.83-14.85 186.43-15.95 186.43-17.55L186.43-17.55Q186.43-19.15 187.03-20.53 187.63-21.9 188.8-22.93 189.98-23.95 191.73-24.53 193.48-25.1 195.78-25.1Z" opacity="1" transform="matrix(1,0,0,1,0,0)" fill="#ff5858" class="wordmark-text-0" data-fill-palette-color="primary" id="text-0"></path></svg></g></svg></g></svg></g></svg></g><g><svg viewBox="0 0 188.4153333421487 188.4153333421487" height="188.4153333421487" width="188.4153333421487"><g><svg></svg></g><g id="icon-0"><svg viewBox="0 0 188.4153333421487 188.4153333421487" height="188.4153333421487" width="188.4153333421487"><g><rect width="171.31838642776856" height="171.31838642776856" x="8.54847345719007" y="8.54847345719007" fill="#ed2647" data-fill-palette-color="accent"></rect><rect width="171.31838642776856" height="171.31838642776856" x="17.096946914380148" y="-8.881784197001252e-15" fill="#ed2647" opacity="0.5" data-fill-palette-color="accent"></rect></g><g transform="matrix(1,0,0,1,24.42420987768594,27.970753272267714)"><svg viewBox="0 0 139.56691358677682 132.47382679761327" height="132.47382679761327" width="139.56691358677682"><g><svg xmlns="http://www.w3.org/2000/svg" xml:space="preserve" viewBox="11.600000000000001 15.599999999999998 66.9 63.5" x="0" y="0" height="132.47382679761327" width="139.56691358677682" class="icon-dxe-0" data-fill-palette-color="quaternary" id="dxe-0"><path d="M41.6 45.7h0.3c0.4-0.1 0.6-0.4 0.6-0.8v-1.8q0.9 0.6 2.1 0.9c0.7 0.2 1.5 0.3 2.3 0.3 1.6 0 3.2-0.4 4.5-1.2v1.7c0 0.4 0.2 0.7 0.6 0.8q0.6 0.15 0.9-0.3c0.5-0.7 0.8-1.5 0.8-2.3v-3.6c0-2.8-3-4.9-6.8-4.9s-6.8 2.2-6.8 4.9V43q0 1.35 0.9 2.4 0.15 0.3 0.6 0.3m9.6-6.3c0 0.5-0.2 0.9-0.6 1.3-0.8 0.8-2.2 1.2-3.7 1.2-2.6 0-3.5-0.8-3.9-1.5s-0.2-1.5 0-2c0.7-1 2.2-1.6 4-1.6 1.4 0 2.8 0.5 3.6 1.2 0.3 0.3 0.5 0.6 0.5 0.9v0.3c0.1 0 0.1 0.1 0.1 0.2 0-0.1 0 0 0 0" fill="#ffffff" data-fill-palette-color="quaternary"></path><path d="M77.8 34.7l-8.5-5v-0.3c0-2.8-3-4.9-6.8-4.9-0.7 0-1.4 0.1-2 0.2l-8.3-4.8c-0.4-2.4-3.2-4.3-6.7-4.3-3.8 0-6.8 2.2-6.8 4.9v0.5L32 24.4v0.1c-0.7-0.2-1.4-0.3-2.2-0.3-3.8 0-6.8 2.2-6.8 4.9v0.3L12.4 35h-0.1c-0.5 0.3-0.7 0.8-0.7 1.3v22.9c0 0.5 0.3 1 0.8 1.3l33.1 18.4c0.2 0.1 0.5 0.2 0.7 0.2 0.3 0 0.5-0.1 0.8-0.2l30.8-18.3c0.5-0.3 0.7-0.8 0.7-1.3V36c0-0.5-0.3-1-0.7-1.3m-18.2-7c0.8-0.5 1.9-0.8 3-0.8 1.4 0 2.8 0.5 3.6 1.2 0.3 0.3 0.5 0.6 0.5 0.9v0.5c0 0.5-0.2 0.9-0.6 1.3-0.8 0.8-2.2 1.2-3.7 1.2-2.6 0-3.5-0.8-3.9-1.5s-0.2-1.5 0-2c0.3-0.4 0.6-0.6 1.1-0.8m-9.8-7.2c0 0.5-0.2 0.9-0.6 1.3-0.8 0.8-2.2 1.2-3.7 1.2-2.6 0-3.5-0.8-3.9-1.5s-0.2-1.5 0-2c0.7-1 2.2-1.6 4-1.6 1.4 0 2.8 0.5 3.6 1.2 0.3 0.3 0.5 0.6 0.5 0.9v0.3c0.1 0.1 0.1 0.1 0.1 0.2 0-0.1 0 0 0 0m-11.1 3.9c0 0.8 0.3 1.5 0.8 2.2 0.2 0.2 0.4 0.3 0.7 0.3h0.3c0.3-0.1 0.6-0.4 0.6-0.8v-1.8q0.9 0.6 2.1 0.9c0.7 0.2 1.5 0.3 2.3 0.3 1.6 0 3.2-0.4 4.5-1.2V26c0 0.4 0.2 0.7 0.6 0.8q0.6 0.15 0.9-0.3c0.5-0.7 0.8-1.5 0.8-2.3v-0.7l4.9 2.9c-0.9 0.8-1.5 1.9-1.5 3.1V33q0 1.35 0.9 2.4c0.2 0.2 0.4 0.3 0.7 0.3h0.3c0.4-0.1 0.6-0.4 0.6-0.8v-1.8q0.9 0.6 2.1 0.9c0.7 0.2 1.5 0.3 2.3 0.3 1.6 0 3.2-0.4 4.5-1.2v1.7c0 0.4 0.2 0.7 0.6 0.8q0.6 0.15 0.9-0.3c0.5-0.6 0.7-1.4 0.8-2.1l4.8 2.8-28 16.2-29.8-15.8 6.7-3.6c0 0.8 0.3 1.6 0.8 2.3 0.2 0.2 0.4 0.3 0.7 0.3h0.3c0.3-0.1 0.6-0.4 0.6-0.8v-1.8q0.9 0.6 2.1 0.9c0.7 0.2 1.5 0.3 2.3 0.3 1.6 0 3.2-0.4 4.5-1.2v1.7c0 0.4 0.2 0.7 0.6 0.8q0.6 0.15 0.9-0.3c0.5-0.7 0.8-1.5 0.8-2.3v-3.6c0-1.1-0.5-2.2-1.4-3z m-4.5 4.7c0 0.5-0.2 0.9-0.6 1.3-0.8 0.8-2.2 1.2-3.7 1.2-2.6 0-3.5-0.8-3.9-1.5s-0.2-1.5 0-2c0.7-1 2.2-1.6 4-1.6 1.4 0 2.8 0.5 3.6 1.2 0.3 0.3 0.5 0.6 0.5 0.9v0.3c0.1 0.1 0.1 0.1 0.1 0.2 0-0.1 0 0 0 0m-19.5 9.8l30.1 15.9v20.4L14.7 58.5z m60.8 19.7L47.7 75.1V54.8l27.8-16.2z" fill="#ffffff" data-fill-palette-color="quaternary"></path></svg></g></svg></g></svg></g></svg></g></svg></g><defs></defs></svg><rect width="395.52" height="123.52454167927527" fill="none" stroke="none" visibility="hidden"></rect></g></svg></g></svg>